<svg width="97" height="27" viewBox="0 0 97 27" fill="none" xmlns="http://www.w3.org/2000/svg">
<g clip-path="url(#clip0_1_3)">
<path d="M-1.62572e-05 26.159V9.59101C-0.0571977 8.28575 0.1737 6.9839 0.67628 5.77791C1.17886 4.57193 1.9408 3.49139 2.90798 2.61301C5.06219 0.793558 7.82673 -0.140346 10.643 1.33058e-05C13.851 1.33058e-05 16.309 0.835013 17.988 2.53201C19.697 4.23201 20.536 6.65401 20.536 9.83201V26.132H12.082V9.86001C12.082 8.29701 11.452 7.51601 10.223 7.51601C8.99398 7.51601 8.42298 8.29701 8.42298 9.86001V26.16L-1.62572e-05 26.159Z" fill="#C9C9C9"/>
<path d="M35.732 13.497V18.105H31.718C31.3167 18.0706 30.914 18.1547 30.56 18.347C30.4413 18.4439 30.3476 18.5678 30.2867 18.7084C30.2258 18.849 30.1995 19.0022 30.21 19.155C30.21 19.586 30.318 19.882 30.56 20.017C31.0136 20.1958 31.5018 20.2696 31.988 20.233H36.137V26.16H31.286C29.3987 26.2946 27.5308 25.7073 26.06 24.517C25.435 23.9098 24.9498 23.1737 24.6381 22.36C24.3264 21.5462 24.1957 20.6744 24.255 19.805V11.665C24.2012 10.821 24.3247 9.97504 24.6175 9.1816C24.9102 8.38815 25.3659 7.66478 25.955 7.05801C27.2788 5.90401 29.0018 5.31424 30.755 5.41501H36.116V11.369H32.175C31.124 11.369 30.586 11.719 30.586 12.393C30.5709 12.5529 30.5978 12.714 30.6639 12.8605C30.73 13.0069 30.8331 13.1335 30.963 13.228C31.383 13.4255 31.8476 13.509 32.31 13.47H35.705L35.732 13.497Z" fill="#C6C6C6"/>
<path d="M39.261 5.44202H45.43V17.754C45.3552 18.4256 45.5172 19.1022 45.888 19.667C46.4129 20.0598 47.0696 20.2337 47.72 20.152H48.043V26.16H46.4C45.4357 26.2165 44.4702 26.0707 43.5656 25.7319C42.6609 25.3932 41.8371 24.869 41.147 24.193C40.4878 23.4503 39.9819 22.5846 39.6582 21.6457C39.3345 20.7068 39.1996 19.7132 39.261 18.722V5.44202Z" fill="#C6C6C6"/>
<path d="M56.288 11.396V26.186H50.118V5.44202H58.146C61.675 5.44202 64.423 6.25002 66.417 7.84202C67.5791 8.76844 68.5066 9.95557 69.1244 11.3072C69.7422 12.6589 70.0329 14.1371 69.973 15.622C70.039 17.0445 69.8018 18.4647 69.277 19.7885C68.7521 21.1122 67.9518 22.3092 66.929 23.3C65.8955 24.2992 64.6705 25.0791 63.3279 25.593C61.9853 26.1068 60.5526 26.3439 59.116 26.29C58.739 26.29 58.116 26.29 57.284 26.236V20.151H58.284C61.867 20.151 63.672 18.642 63.672 15.651C63.669 12.822 61.888 11.422 58.362 11.422H56.288V11.396Z" fill="#C6C6C6"/>
<path d="M79.051 5.44202V26.186H72.882V5.44202H79.051Z" fill="#C6C6C6"/>
<path d="M92.222 11.396V26.186H86.057V11.396H81.342V5.44202H96.942V11.396H92.222Z" fill="#C6C6C6"/>
</g>
<defs>
<clipPath id="clip0_1_3">
<rect width="96.94" height="26.294" fill="white"/>
</clipPath>
</defs>
</svg>
