<svg xmlns="http://www.w3.org/2000/svg" width="96.94" height="26.294" viewBox="0 0 96.94 26.294">
  <g id="neldit_logo" transform="translate(2.24)">
    <g id="그룹_30" data-name="그룹 30" transform="translate(-2.24)">
      <path id="패스_4" data-name="패스 4" d="M0,26.159V9.591A8.9,8.9,0,0,1,2.908,2.613,11.129,11.129,0,0,1,10.643,0c3.208,0,5.666.835,7.345,2.532,1.709,1.7,2.548,4.122,2.548,7.3v16.3H12.082V9.86c0-1.563-.63-2.344-1.859-2.344s-1.8.781-1.8,2.344v16.3Z" fill="#237eb0"/>
      <path id="패스_5" data-name="패스 5" d="M19.707,10.092V14.7H15.693a2.058,2.058,0,0,0-1.158.242.958.958,0,0,0-.35.808c0,.431.108.727.35.862a3.232,3.232,0,0,0,1.428.216h4.149v5.927H15.261a7.463,7.463,0,0,1-5.226-1.643A6,6,0,0,1,8.23,16.4V8.26a6.06,6.06,0,0,1,1.7-4.607,6.718,6.718,0,0,1,4.8-1.643h5.361V7.964H16.15c-1.051,0-1.589.35-1.589,1.024a.925.925,0,0,0,.377.835,2.643,2.643,0,0,0,1.347.242H19.68Z" transform="translate(16.025 3.405)" fill="#231815"/>
      <path id="패스_6" data-name="패스 6" d="M13.8,2.02h6.169V14.332a2.9,2.9,0,0,0,.458,1.913,2.531,2.531,0,0,0,1.832.485h.323v6.008H20.939a6.928,6.928,0,0,1-5.253-1.967A7.539,7.539,0,0,1,13.8,15.3Z" transform="translate(25.461 3.422)" fill="#231815"/>
      <path id="패스_7" data-name="패스 7" d="M24,7.974v14.79H17.83V2.02h8.028c3.529,0,6.277.808,8.271,2.4A9.462,9.462,0,0,1,37.685,12.2a10.042,10.042,0,0,1-3.044,7.678,10.666,10.666,0,0,1-7.813,2.99c-.377,0-1,0-1.832-.054V16.729h1c3.583,0,5.388-1.509,5.388-4.5C31.381,9.4,29.6,8,26.074,8H24Z" transform="translate(32.288 3.422)" fill="#231815"/>
      <path id="패스_8" data-name="패스 8" d="M32.449,2.02V22.764H26.28V2.02Z" transform="translate(46.602 3.422)" fill="#231815"/>
      <path id="패스_9" data-name="패스 9" d="M40.3,7.974v14.79H34.135V7.974H29.42V2.02h15.6V7.974H40.3Z" transform="translate(51.922 3.422)" fill="#231815"/>
    </g>
  </g>
</svg>
